<?xml version="1.0" encoding="utf-8"?>
<!-- Generator: Adobe Illustrator 24.2.2, SVG Export Plug-In . SVG Version: 6.00 Build 0)  -->
<svg version="1.1" id="Layer_1" xmlns="http://www.w3.org/2000/svg" xmlns:xlink="http://www.w3.org/1999/xlink" x="0px" y="0px"
	 viewBox="0 0 50.6 17.9" style="enable-background:new 0 0 50.6 17.9;" xml:space="preserve">
<style type="text/css">
	.st0{fill:#4551A2;}
	.st1{fill:#111111;}
</style>
<text transform="matrix(1 0 0 1 5146.668 3456)" style="font-family:'MyriadPro-Regular'; font-size:12px;">000000</text>
<g>
	<path class="st0" d="M19.6,7.7l-4-0.1c-0.2-0.1-0.3-0.3-0.4-0.5C15.1,6.8,15,6.3,15,5.7V3.8c0-0.5,0-0.8,0.1-1.1
		c0-0.2,0.2-0.5,0.4-0.7s0.5-0.4,0.9-0.5s0.8-0.2,1.3-0.2c0.7,0,1.2,0.1,1.6,0.3S20,2,20.1,2.3c0.1,0.3,0.2,0.7,0.2,1.3v0.6h-2.2v-1
		c0-0.3,0-0.5-0.1-0.6c0-0.1-0.2-0.1-0.3-0.1c-0.2,0-0.3,0-0.4,0.1c0,0.1-0.1,0.3-0.1,0.6v3c0,0.3,0,0.3,0.1,0.4
		c0,0.1,0.2,0.1,0.3,0.1c0.2,0,0.3,0,0.3-0.1C18,6.5,18,6.5,18,6.1V5.4h2.2v0.3c0,0.7-0.1,1.2-0.2,1.4C20,7.3,19.8,7.5,19.6,7.7z
		 M7.5,7.5h2.2v-6H7.5V7.5z M22.8,5.3h0.7v2.5h2.2V1.5h-2.2v2.3h-0.7V1.5h-2.2v6.2h2.2V5.3z M32.1,5l1.1,2.9h2V1.5h-1.9v2.9L32,1.5
		h-1.9v6.4H32V5H32.1z M29.9,6.7h-1.6V5.3h1.4V4h-1.4V2.8h1.5V1.5h-3.7v6.3L30,7.9L29.9,6.7L29.9,6.7z M11.3,7.5h2.2V2.8h1.3V1.5H10
		v1.3h1.3V7.5z M25.8,11.2c0,0.3,0.1,0.7,0.1,1.4v1.1c0,0.7,0,1.1-0.1,1.4c0,0.3-0.2,0.5-0.4,0.7c-0.2,0.2-0.5,0.4-0.9,0.5
		s-0.8,0.2-1.3,0.2s-0.9-0.1-1.2-0.2c-0.4-0.1-0.7-0.3-0.9-0.5c-0.2-0.2-0.4-0.5-0.4-0.7c0-0.3-0.1-0.7-0.1-1.4v-1.1
		c0-0.7,0-1.1,0.1-1.4c0-0.3,0.2-0.5,0.4-0.7c0.1-0.1,0.2-0.2,0.3-0.3l3.5-0.1c0.2,0.1,0.3,0.2,0.4,0.3
		C25.6,10.7,25.7,10.9,25.8,11.2z M23.6,11.6c0-0.3,0-0.5-0.1-0.6c0-0.1-0.1-0.1-0.3-0.1c-0.1,0-0.2,0-0.3,0.1
		c-0.1,0.1-0.1,0.3-0.1,0.6v3c0,0.4,0,0.6,0.1,0.7c0,0.1,0.1,0.1,0.3,0.1c0.2,0,0.2-0.1,0.3-0.2c0-0.1,0.1-0.3,0.1-0.7V11.6z
		 M5.1,1.5L4.1,4V1.5H1.9v7.4l0,0c0-0.7,0.7-1.6,1.5-1.6h0.8V5.2l0.7,2.2h2.3L6,4.4l1.3-2.9C7.3,1.5,5.1,1.5,5.1,1.5z M33.7,15.1
		v-1.4h1.4v-1.2h-1.4v-1.2h1.5V9.9L31.4,10v6.4h3.9v-1.3C35.3,15.1,33.7,15.1,33.7,15.1z M30.9,12.7c-0.2,0.2-0.5,0.3-1,0.3
		c0.4,0.1,0.7,0.2,0.9,0.3c0.2,0.1,0.2,0.3,0.3,0.4c0,0.1,0.1,0.4,0.1,1v1.7h-2.1v-2.2c0-0.3,0-0.6-0.1-0.6
		c-0.1-0.1-0.3-0.1-0.6-0.1v2.9h-2.2v-6.3l3.9-0.1c0.3,0.1,0.5,0.2,0.7,0.4c0.2,0.3,0.4,0.7,0.4,1.2C31.2,12.2,31.1,12.5,30.9,12.7z
		 M29.1,11.5c0-0.2,0-0.3-0.1-0.4C28.8,11,28.6,11,28.4,11v1.4c0.3,0,0.4,0,0.5-0.1s0.2-0.2,0.2-0.5V11.5z M15.6,11.3h1.3v5.1h2.2
		v-5.1h1.3v-1.1l-4.9,0.1v1H15.6z M13.3,12.3c-0.3-0.2-0.6-0.3-0.6-0.4c-0.1-0.1-0.1-0.1-0.1-0.3s0-0.3,0.1-0.4
		c0-0.2,0.1-0.2,0.3-0.2c0.1,0,0.2,0,0.3,0.1s0.1,0.2,0.1,0.4v0.3h2.1v-0.3c0-0.5-0.1-0.9-0.2-1.1c0-0.1-0.1-0.1-0.2-0.2l-4.2,0.1
		l-0.1,0.1c-0.2,0.2-0.3,0.6-0.3,1.1c0,0.3,0.1,0.6,0.2,0.9c0.1,0.2,0.3,0.4,0.4,0.5c0.2,0.1,0.5,0.3,1.1,0.6s0.9,0.5,1,0.6
		s0.2,0.4,0.2,0.8c0,0.2,0,0.3-0.1,0.4c-0.1,0.1-0.2,0.1-0.3,0.1s-0.3,0-0.3-0.1c-0.1-0.1-0.1-0.2-0.1-0.5V14h-2.1v0.4
		c0,0.5,0.1,0.9,0.2,1.1c0.1,0.3,0.4,0.5,0.8,0.7c0.4,0.2,0.9,0.3,1.5,0.3c0.5,0,1-0.1,1.4-0.2s0.7-0.3,0.8-0.6
		c0.1-0.2,0.2-0.6,0.2-1c0-0.6-0.1-1.1-0.4-1.4C14.9,13.1,14.3,12.7,13.3,12.3z"/>
	<path class="st1" d="M48.8,8.8L48.8,8.8c0,4.6-3,7.6-9.4,7.6h-1.5c-0.8,0-1.5-0.7-1.5-1.5v-4.8c0-0.3,0.4-0.1,0.6,0
		c0.8,0.5,1.3,1.4,2.3,2.2c1.1,1,2.2,1.8,3.7,1.8h0.7c3,0,4.8-2.6,4.8-5.3V8.6c0-2.7-1.8-5.3-4.8-5.3H43c-1.5,0-2.6,0.7-3.7,1.7
		c-1,0.9-1.4,1.8-2.2,2.3c-0.3,0.2-0.7,0.5-0.7,0.1V3c0-0.8,0.7-1.5,1.5-1.5h1.5C45.8,1.5,48.8,4.2,48.8,8.8z M3.6,8.5
		C3.3,8.5,3.1,8.7,3.1,9s0.2,0.5,0.5,0.5S4.1,9.3,4.1,9S3.9,8.5,3.6,8.5z M42,8.4c-0.3,0-0.5,0.2-0.5,0.5l0,0c0,0.3,0.2,0.5,0.5,0.5
		h2.3c0.3,0,0.5-0.2,0.5-0.5l0,0c0-0.3-0.2-0.5-0.5-0.5H42z M46.1,7c0-0.3-0.2-0.5-0.5-0.5h-4.9c-0.3,0-0.5,0.2-0.5,0.5
		s0.2,0.5,0.5,0.5h4.9C45.9,7.5,46.1,7.3,46.1,7z M40.8,11.4h4.9c0.3,0,0.5-0.2,0.5-0.5c0-0.3-0.2-0.5-0.5-0.5h-4.9
		c-0.3,0-0.5,0.2-0.5,0.5C40.3,11.1,40.5,11.4,40.8,11.4z"/>
</g>
</svg>
